<svg xmlns="http://www.w3.org/2000/svg" viewBox="0 0 696.7 310.86"><defs><style>.cls-1{fill:#fff;}</style></defs><g id="Layer_2" data-name="Layer 2"><g id="Layer_1-2" data-name="Layer 1"><polygon class="cls-1" points="667.2 0 667.2 33.07 696.7 62.56 696.7 0 667.2 0"/><polygon class="cls-1" points="667.2 0 667.2 33.07 696.7 62.56 696.7 0 667.2 0"/><polygon class="cls-1" points="150.83 0.08 62.48 0.08 29.54 33.04 29.52 33.07 29.52 74.77 74.69 29.62 138.62 29.62 183.79 74.77 183.79 138.68 138.62 183.87 74.69 183.87 29.52 138.68 29.52 180.44 29.54 180.46 62.48 213.4 150.83 213.4 213.3 150.9 213.3 62.56 150.83 0.08"/><polygon class="cls-1" points="150.83 0.08 62.48 0.08 29.54 33.04 29.52 33.07 29.52 74.77 74.69 29.62 138.62 29.62 183.79 74.77 183.79 138.68 138.62 183.87 74.69 183.87 29.52 138.68 29.52 180.44 29.54 180.46 62.48 213.4 150.83 213.4 213.3 150.9 213.3 62.56 150.83 0.08"/><polygon class="cls-1" points="0 0 0 62.56 29.52 33.09 29.52 33.07 29.54 33.07 29.54 0 0 0"/><polygon class="cls-1" points="0 0 0 62.56 29.52 33.09 29.52 33.07 29.54 33.07 29.54 0 0 0"/><polygon class="cls-1" points="29.52 180.44 29.52 180.42 0 150.92 0 310.86 29.54 310.86 29.54 180.44 29.52 180.44"/><polygon class="cls-1" points="29.52 180.44 29.52 180.42 0 150.92 0 310.86 29.54 310.86 29.54 180.44 29.52 180.44"/><polygon class="cls-1" points="696.7 150.92 696.7 310.86 667.2 310.86 667.2 180.42 696.7 150.92"/><polygon class="cls-1" points="667.2 33.04 667.2 74.79 622.01 29.6 558.1 29.6 512.91 74.79 512.91 138.7 558.1 183.89 622.01 183.89 667.2 138.7 667.2 180.42 634.22 213.38 545.88 213.38 483.42 150.92 483.42 62.58 545.88 0.08 634.22 0.08 667.2 33.04"/><path class="cls-1" d="M426.15,32.84,392.52.08H304.18L241.7,62.58v88.34l62.48,62.46h88.34l33-33,0,33H455l1.83-65.11L457.1,62Zm0,104.16-45.83,46.89H316.41L271.22,138.7V74.79L316.41,29.6h63.91l45.83,46.83Z"/></g></g></svg>